#!OML:ASF X:\2005_08_12_Meinard\c3d\meinard.ASF
:FULLY-SPECIFIED
:DEGREES
311
root 3.29596 16.211 0.00155009 42.8837 -76.9912 -66.2408
lowerback 47.7792 1.14714 2.48285
upperback 10.3826 1.10286 2.45182
thorax -9.92592 -0.358388 1.03722
lowerneck -6.92945 -7.39279 -7.78728
upperneck -11.2349 -9.1023 13.1232
head -1.17517 -4.72849 5.08277
rclavicle 9.93923e-015 7.15625e-015
rhumerus -39.6562 -2.26694 -72.7394
rradius 72.2787
rwrist 17.1044
rhand -11.6857 -6.63608
rfingers 7.12502
rthumb 14.3599 -36.1194
lclavicle 9.93923e-015 7.15625e-015
lhumerus -21.0481 22.006 72.2726
lradius 39.9106
lwrist -216.641
lhand -11.4482 9.00714
lfingers 7.12502
lthumb 14.5887 38.4741
rfemur 0.26007 -3.25328 30.8259
rtibia 52.6089
rfoot -11.4142 -13.2699
rtoes 11.8142
lfemur -6.31001 1.17657 -13.261
ltibia 53.9012
lfoot -20.0066 20.1599
ltoes 8.53098
312
root 3.2995 16.1725 -0.00731846 42.8408 -77.047 -65.5772
lowerback 47.3709 1.28972 2.61385
upperback 10.2291 1.36845 2.33677
thorax -9.99643 -0.210899 0.720367
lowerneck -6.90557 -7.64681 -7.76063
upperneck -11.2385 -9.44212 13.1951
head -1.14251 -4.90093 5.08606
rclavicle 2.06736e-014 1.66979e-014
rhumerus -40.1913 -2.49278 -72.8215
rradius 72.3169
rwrist 17.2446
rhand -11.7751 -6.71733
rfingers 7.12502
rthumb 14.2737 -36.2068
lclavicle 2.06736e-014 1.66979e-014
lhumerus -21.3135 21.4164 72.3166
lradius 40.0182
lwrist -216.387
lhand -12.0923 9.11248
lfingers 7.12502
lthumb 13.9681 38.6232
rfemur 1.47054 -2.58932 31.1166
rtibia 49.9243
rfoot -13.9736 -14.4122
rtoes 10.9723
lfemur -7.43069 1.07492 -13.5052
ltibia 54.7131
lfoot -20.2536 20.4642
ltoes 8.7479
313
root 3.30298 16.1417 -0.0160426 42.8339 -77.1151 -64.9794
lowerback 47.0007 1.43635 2.72418
upperback 10.0586 1.62952 2.22218
thorax -10.0927 -0.0671376 0.417561
lowerneck -6.99194 -7.89362 -7.68513
upperneck -11.136 -9.77826 13.1944
head -1.06891 -5.06559 5.05143
rclavicle -2.90226e-014 -2.14687e-014
rhumerus -40.714 -2.74312 -72.9386
rradius 72.2821
rwrist 17.5041
rhand -11.8119 -6.92003
rfingers 7.12502
rthumb 14.2383 -36.412
lclavicle -2.90226e-014 -2.14687e-014
lhumerus -21.5498 20.6925 72.348
lradius 40.0938
lwrist -216.029
lhand -12.7641 9.16161
lfingers 7.12502
lthumb 13.3206 38.7159
rfemur 2.48814 -1.88051 31.4159
rtibia 47.5821
rfoot -16.6422 -15.6183
rtoes 9.14385
lfemur -8.45879 1.06246 -13.7029
ltibia 55.4052
lfoot -20.4493 20.6534
ltoes 9.02974
314
root 3.30587 16.1174 -0.0243674 43.0411 -77.2041 -64.6309
lowerback 46.639 1.60381 2.81912
upperback 9.89723 1.90462 2.11153
thorax -10.1776 0.080472 0.12128
lowerneck -7.17988 -8.13395 -7.64442
upperneck -10.9586 -10.1017 13.2315
head -0.954513 -5.21868 5.02664
rclavicle -7.55382e-015 -1.51076e-014
rhumerus -41.2368 -3.05416 -73.0837
rradius 72.1839
rwrist 17.8279
rhand -11.8039 -7.1924
rfingers 7.12502
rthumb 14.246 -36.6838
lclavicle -7.55382e-015 -1.51076e-014
lhumerus -21.7705 19.7644 72.3546
lradius 40.1787
lwrist -215.494
lhand -13.3787 9.10966
lfingers 7.12502
lthumb 12.7281 38.7017
rfemur 3.27959 -1.13282 31.7242
rtibia 45.6567
rfoot -19.088 -16.6693
rtoes 7.82579
lfemur -9.38067 1.14662 -13.8529
ltibia 55.9893
lfoot -20.623 20.8018
ltoes 9.39103
315
root 3.30796 16.096 -0.0326164 43.4118 -77.3122 -64.4949
lowerback 46.2719 1.78133 2.90073
upperback 9.74986 2.1826 2.01281
thorax -10.2424 0.227132 -0.155683
lowerneck -7.38878 -8.36098 -7.6405
upperneck -10.7457 -10.4056 13.272
head -0.826269 -5.35881 5.00649
rclavicle -1.82882e-014 3.10104e-014
rhumerus -41.6963 -3.35578 -73.223
rradius 71.9298
rwrist 18.2029
rhand -11.8439 -7.46472
rfingers 7.12502
rthumb 14.2075 -36.9588
lclavicle -1.82882e-014 3.10104e-014
lhumerus -22.0594 18.8076 72.3341
lradius 40.3398
lwrist -214.886
lhand -13.9191 8.97129
lfingers 7.12502
lthumb 12.2071 38.5951
rfemur 3.83945 -0.450417 32.0001
rtibia 44.1786
rfoot -21.0864 -17.5587
rtoes 7.90975
lfemur -10.1972 1.26112 -13.9768
ltibia 56.4779
lfoot -20.7504 20.9567
ltoes 9.64761
316
root 3.30849 16.0785 -0.0401934 43.9956 -77.4229 -64.6656
lowerback 45.9779 1.95879 2.98102
upperback 9.60399 2.45821 1.93
thorax -10.322 0.368541 -0.412654
lowerneck -7.57633 -8.56017 -7.67872
upperneck -10.5491 -10.6693 13.3208
head -0.707347 -5.47829 4.99806
rclavicle -3.18055e-015 -5.56597e-015
rhumerus -41.9353 -3.64533 -73.3549
rradius 71.335
rwrist 18.6269
rhand -11.9446 -7.6696
rfingers 7.12502
rthumb 14.1104 -37.1705
lclavicle -3.18055e-015 -5.56597e-015
lhumerus -22.3685 17.8115 72.2934
lradius 40.5342
lwrist -214.158
lhand -14.2754 8.69999
lfingers 7.12502
lthumb 11.8635 38.3439
rfemur 4.11528 0.170343 32.2448
rtibia 43.1431
rfoot -22.3576 -18.2545
rtoes 8.67211
lfemur -10.8606 1.37184 -14.0655
ltibia 56.9018
lfoot -20.8286 21.1736
ltoes 10.1426
